<?xml version="1.0" standalone="no"?>
<!DOCTYPE svg PUBLIC "-//W3C//DTD SVG 20010904//EN"
 "http://www.w3.org/TR/2001/REC-SVG-20010904/DTD/svg10.dtd">
<svg version="1.0" xmlns="http://www.w3.org/2000/svg"
 width="64.000000pt" height="64.000000pt" viewBox="0 0 64.000000 64.000000"
 preserveAspectRatio="xMidYMid meet">

<g transform="translate(0.000000,64.000000) scale(0.100000,-0.100000)"
fill="#000000" stroke="none">
<path d="M208 569 c-44 -46 -68 -97 -68 -141 0 -10 -5 -18 -11 -18 -6 0 -9
-16 -7 -37 l3 -38 195 0 195 0 3 38 c2 21 -1 37 -7 37 -6 0 -11 8 -11 18 0 45
-24 95 -69 141 -49 51 -49 51 -113 51 -63 -1 -63 -1 -110 -51z m164 -26 c3
-46 23 -70 30 -36 4 17 5 16 15 -2 6 -11 14 -37 18 -58 l7 -37 -101 0 c-83 0
-101 -3 -101 -15 0 -12 19 -15 110 -15 67 0 110 -4 110 -10 0 -6 -58 -10 -155
-10 -157 0 -165 2 -146 38 6 9 13 34 16 55 3 21 19 52 35 70 l29 32 1 -33 c0
-52 24 -34 28 21 l3 47 49 0 49 0 3 -47z"/>
<path d="M157 293 c-3 -5 5 -30 18 -57 65 -134 167 -160 250 -64 43 51 70 123
46 123 -5 0 -22 -25 -38 -55 -29 -54 -80 -100 -113 -100 -33 0 -84 46 -113
100 -28 55 -41 68 -50 53z"/>
<path d="M203 96 c-60 -25 -80 -40 -65 -50 6 -3 34 3 63 14 45 18 54 19 61 6
18 -32 97 -28 120 7 4 7 25 2 56 -11 61 -26 64 -27 60 -6 -2 9 -30 27 -63 40
l-60 25 -18 -26 c-23 -31 -44 -32 -76 -1 l-26 23 -52 -21z"/>
</g>
</svg>
